Coordinates
version=1
nRows=14
nColumns=40
inDegrees=yes

Units are S.I. units (second, meters, Newtons, ...)
If the header above contains a line with 'inDegrees', this indicates whether rotational values are in degrees (yes) or radians (no).

endheader
time	pelvis_tilt	pelvis_list	pelvis_rotation	pelvis_tx	pelvis_ty	pelvis_tz	hip_flexion_r	hip_adduction_r	hip_rotation_r	knee_angle_r	knee_angle_r_beta	ankle_angle_r	subtalar_angle_r	mtp_angle_r	hip_flexion_l	hip_adduction_l	hip_rotation_l	knee_angle_l	knee_angle_l_beta	ankle_angle_l	subtalar_angle_l	mtp_angle_l	lumbar_extension	lumbar_bending	lumbar_rotation	arm_flex_r	arm_add_r	arm_rot_r	elbow_flex_r	pro_sup_r	wrist_flex_r	wrist_dev_r	arm_flex_l	arm_add_l	arm_rot_l	elbow_flex_l	pro_sup_l	wrist_flex_l	wrist_dev_l
      3.92500000	    -14.63202183	     -2.00582081	      0.52533039	     -0.38110505	      0.86251493	     -0.77170475	     56.29775063	     -0.94324860	    -14.34694413	     76.38650312	      1.33319598	     23.60232894	      0.00000000	      0.00000000	     36.27535868	    -20.12823453	     -3.26365644	    106.82502454	      1.86444840	    -19.84960756	      0.00000000	      0.00000000	     -8.39195091	      9.29823093	      7.02044237	     89.95923279	    -16.60741205	     15.05991984	     47.18278567	     82.37012065	      0.00000000	      0.00000000	     89.95347766	     -9.27004345	     17.82614516	     44.25830255	     83.89699277	      0.00000000	      0.00000000
      3.93000000	    -14.64697239	     -1.92533722	      0.46097325	     -0.38141588	      0.86232279	     -0.77177575	     56.35946254	     -0.94623050	    -14.22697870	     76.40474068	      1.33351429	     23.66103480	      0.00000000	      0.00000000	     36.29336492	    -20.02102007	     -3.26336679	    106.82705096	      1.86448377	    -19.76998261	      0.00000000	      0.00000000	     -8.42547875	      9.20008043	      7.04021415	     89.95925962	    -16.57496512	     15.58866706	     47.22778497	     77.48890530	      0.00000000	      0.00000000	     89.95373265	     -9.24624413	     18.32155927	     44.26993439	     78.70178504	      0.00000000	      0.00000000
      3.93500000	    -14.68545841	     -1.96150282	      0.46535820	     -0.38161961	      0.86204616	     -0.77186945	     56.43288657	     -0.93702206	    -14.26560924	     76.44874408	      1.33428229	     23.66276292	      0.00000000	      0.00000000	     36.40021548	    -20.00876966	     -3.13084869	    106.88641241	      1.86551982	    -19.87626587	      0.00000000	      0.00000000	     -8.42739839	      9.23158355	      7.03660976	     89.95932043	    -16.64196837	     15.10500505	     47.17160258	     82.48723440	      0.00000000	      0.00000000	     89.95352199	     -9.23136608	     17.62315673	     44.28973367	     83.83212924	      0.00000000	      0.00000000
      3.94000000	    -14.66702393	     -1.96014967	      0.42490111	     -0.38180691	      0.86179607	     -0.77191299	     56.44671744	     -0.91820528	    -14.27610409	     76.50932321	      1.33533960	     23.73136079	      0.00000000	      0.00000000	     36.42864250	    -19.97491042	     -3.04520184	    106.95108879	      1.86664864	    -19.96376146	      0.00000000	      0.00000000	     -8.47587811	      9.20750366	      7.04776171	     89.95918091	    -16.66500752	     15.78834793	     47.24474777	     77.53057714	      0.00000000	      0.00000000	     89.95366394	     -9.24026495	     18.25041782	     44.40409387	     78.63823615	      0.00000000	      0.00000000
      3.94500000	    -14.69483342	     -1.92225343	      0.41905144	     -0.38201957	      0.86156072	     -0.77206511	     56.52201521	     -0.94254240	    -14.20689457	     76.53724964	      1.33582701	     23.65472920	      0.00000000	      0.00000000	     36.48709830	    -19.89467264	     -3.00513962	    106.97820236	      1.86712186	    -19.93203771	      0.00000000	      0.00000000	     -8.49044668	      9.18042897	      7.04495326	     89.95929839	    -16.69237250	     15.25925877	     47.16345884	     82.36425842	      0.00000000	      0.00000000	     89.95359412	     -9.22147676	     17.58281154	     44.29830815	     84.00842107	      0.00000000	      0.00000000
      3.95000000	    -14.68879807	     -1.93659538	      0.38787209	     -0.38219334	      0.86131966	     -0.77212900	     56.55475253	     -0.90558239	    -14.19999158	     76.58892382	      1.33672889	     23.65914101	      0.00000000	      0.00000000	     36.52362054	    -19.86868307	     -2.91644522	    107.03810291	      1.86816732	    -20.00954503	      0.00000000	      0.00000000	     -8.53422802	      9.19336768	      7.06614315	     89.95934883	    -16.71478627	     15.27035971	     47.18835460	     82.33204300	      0.00000000	      0.00000000	     89.95354216	     -9.20837557	     17.54958308	     44.26928290	     83.86658231	      0.00000000	      0.00000000
      3.95500000	    -14.69851678	     -1.94180050	      0.36631945	     -0.38245307	      0.86102453	     -0.77227663	     56.60091218	     -0.87154703	    -14.15064130	     76.61766936	      1.33723060	     23.79130909	      0.00000000	      0.00000000	     36.58855701	    -19.80381754	     -2.82616896	    107.07885012	      1.86887849	    -20.13784303	      0.00000000	      0.00000000	     -8.56017147	      9.18931533	      7.09607467	     89.95932285	    -16.80574122	     15.94337460	     47.28916769	     77.40456021	      0.00000000	      0.00000000	     89.95360402	     -9.18501573	     18.13066141	     44.42427128	     78.66818094	      0.00000000	      0.00000000
      3.96000000	    -14.73858733	     -1.91009035	      0.34635045	     -0.38265642	      0.86074012	     -0.77238223	     56.69118777	     -0.86194296	    -14.07870036	     76.65160181	      1.33782283	     23.71369166	      0.00000000	      0.00000000	     36.66814920	    -19.75246761	     -2.77860081	    107.16272931	      1.87034246	    -20.14400261	      0.00000000	      0.00000000	     -8.55665988	      9.15643387	      7.07251163	     89.95930413	    -16.75365167	     15.38313547	     47.15298591	     82.19784602	      0.00000000	      0.00000000	     89.95360828	     -9.16990090	     17.41521996	     44.31115736	     84.00179727	      0.00000000	      0.00000000
      3.96500000	    -14.76198231	     -1.88794658	      0.31884964	     -0.38287853	      0.86044139	     -0.77250150	     56.76832505	     -0.83947541	    -14.00648179	     76.70875399	      1.33882032	     23.77665456	      0.00000000	      0.00000000	     36.73260991	    -19.66618831	     -2.71201346	    107.22139833	      1.87136643	    -20.22658564	      0.00000000	      0.00000000	     -8.57632750	      9.12840225	      7.07875319	     89.95933961	    -16.76980582	     15.39040736	     47.12588989	     82.46117204	      0.00000000	      0.00000000	     89.95358889	     -9.14838538	     17.38292738	     44.31835593	     83.86377402	      0.00000000	      0.00000000
      3.97000000	    -14.75764323	     -1.85476254	      0.29062247	     -0.38294459	      0.85997923	     -0.77262347	     56.82145698	     -0.81886168	    -13.91833946	     76.79672931	      1.34035578	     23.85424210	      0.00000000	      0.00000000	     36.73494394	    -19.55818400	     -2.65408202	    107.29338221	      1.87262279	    -20.23407900	      0.00000000	      0.00000000	     -8.58087720	      9.08263893	      7.08515402	     89.95933646	    -16.80101715	     15.49801544	     47.06549963	     82.17693499	      0.00000000	      0.00000000	     89.95362728	     -9.11126906	     17.37595282	     44.26751188	     84.00442247	      0.00000000	      0.00000000
      3.97500000	    -14.74254237	     -1.83389609	      0.27336436	     -0.38312008	      0.85972755	     -0.77273287	     56.84925698	     -0.78828961	    -13.83982433	     76.83748751	      1.34106715	     23.89128050	      0.00000000	      0.00000000	     36.75431638	    -19.47418914	     -2.58966110	    107.35807614	      1.87375191	    -20.28921970	      0.00000000	      0.00000000	     -8.63465831	      9.05738907	      7.08408856	     89.95933894	    -16.82186922	     15.51750398	     47.07409529	     82.35829186	      0.00000000	      0.00000000	     89.95366982	     -9.12414580	     17.35763290	     44.31119235	     83.93813685	      0.00000000	      0.00000000
      3.98000000	    -14.74436923	     -1.80968383	      0.26916785	     -0.38326317	      0.85937823	     -0.77284545	     56.89658476	     -0.77259817	    -13.77626190	     76.89350723	      1.34204487	     23.99701470	      0.00000000	      0.00000000	     36.79137831	    -19.38041220	     -2.51389347	    107.42767223	      1.87496659	    -20.32019670	      0.00000000	      0.00000000	     -8.65380750	      9.02910501	      7.04472616	     89.95928902	    -16.82119159	     15.59521219	     47.04649234	     81.86512235	      0.00000000	      0.00000000	     89.95370141	     -9.14361776	     17.33875711	     44.33238859	     83.78753141	      0.00000000	      0.00000000
      3.98500000	    -14.75609314	     -1.80137315	      0.25810541	     -0.38348369	      0.85907778	     -0.77292267	     56.94710085	     -0.71869590	    -13.68926570	     76.90715607	      1.34228309	     24.00310339	      0.00000000	      0.00000000	     36.85619679	    -19.28626416	     -2.42894544	    107.49194510	      1.87608836	    -20.41933715	      0.00000000	      0.00000000	     -8.67273924	      9.01589501	      7.04655763	     89.95930811	    -16.84535579	     15.59987358	     47.03544181	     82.21265190	      0.00000000	      0.00000000	     89.95368635	     -9.11887548	     17.33416794	     44.31025673	     83.86493481	      0.00000000	      0.00000000
      3.99000000	    -14.73663799	     -1.78224981	      0.23963546	     -0.38362283	      0.85888553	     -0.77308252	     56.97104041	     -0.68413732	    -13.60127679	     76.95140213	      1.34305533	     24.04179051	      0.00000000	      0.00000000	     36.84871487	    -19.19477379	     -2.40039524	    107.49933456	      1.87621733	    -20.53542816	      0.00000000	      0.00000000	     -8.73163685	      9.00452016	      7.04896346	     89.95930509	    -16.85878361	     15.62154529	     47.05203278	     82.25442728	      0.00000000	      0.00000000	     89.95367458	     -9.10271561	     17.32076019	     44.28263771	     83.90499164	      0.00000000	      0.00000000
